<svg xmlns="http://www.w3.org/2000/svg" viewBox="0 0 151.78 163.37"><defs><style>.cls-1{fill:#2d2e83;}</style></defs><g id="Layer_2" data-name="Layer 2"><g id="Objects"><path class="cls-1" d="M85.19,78.34C84,74,78.33,69.92,74.05,72.78c-1.67-.36-3.28,1.29-4.12,2.63a9.73,9.73,0,0,0-1.29,6.48,7.88,7.88,0,0,0,9.72,6.47C82.89,87.39,86.48,83.09,85.19,78.34Zm-8,6.67a4.57,4.57,0,0,1-5.32-4.65A6.18,6.18,0,0,1,73,76.58c.54-.73,1.36-1.2,1.8-2,2.94.16,6.18,1.51,7,4.67C82.46,82.21,79.86,84.6,77.15,85Z"/><path class="cls-1" d="M149.54,92.21a41.66,41.66,0,0,0-10.88-15.38,31.28,31.28,0,0,0,4.82-14.62,11.05,11.05,0,0,0,6.78-7.35c1.39-5-1.87-12-7.76-11.77a1.52,1.52,0,0,0-1.34,1.08A7.56,7.56,0,0,0,138.4,44a2.15,2.15,0,0,0-.44-.9c-9.84-11.72-23.71-11.32-37-7-2-11.66-5.68-25.36-17.54-28.31a8.59,8.59,0,0,0-1.59-4.28c-2.64-3.6-9.45-5.14-12.39-1.15a6.72,6.72,0,0,0-4.79,5.2,1.66,1.66,0,0,0-.5.22C54.5,14,48.24,23.28,44.39,33.66,27.5,31.84,1.9,34,2.3,54c.2,10.56,8.43,19.16,16.07,25.43q2.72,2.22,5.54,4.34a126.36,126.36,0,0,0-10.31,11C9.94,93.44,5.16,94.05,3.82,98a.8.8,0,0,0,0,.15A8.45,8.45,0,0,0,2,110.59a9.51,9.51,0,0,0,4.4,3.12c-5.18,11.4,5.88,22.85,16.91,24.91,8,1.49,16.53.32,24.9-2,.73,2.42,1.5,4.82,2.35,7.17-6.31,5.55-3.66,20.8,7.48,17.58a11,11,0,0,0,5-3.19c10.61,8.43,26,6.21,34.8-3.9,4.88-5.6,6.51-12.57,7-19.82.28-4.09.44-8.2.55-12.31,8.51,1.9,17.18,2.66,25.64.5.81,3.69,3.35,6.68,8.1,6.48,5.14-.22,10.2-4.52,10.52-9.81A8.28,8.28,0,0,0,148,113.8C153.91,109.75,151.65,97.65,149.54,92.21Zm-6.3-45.74h0c2.56,1.43,4.38,3.48,3.6,7-.89,4-5.33,7-9.21,5-2.92-1.54-4.43-5.29-2.62-8.2C136.68,47.53,140.23,46.33,143.24,46.47Zm-8.49-1.15a9.38,9.38,0,0,0-3.55,4c-2.28,5,.86,11,5.8,12.84a8.72,8.72,0,0,0,2.84.58,29.57,29.57,0,0,1-4.12,11.48,97.88,97.88,0,0,0-8.92-6.44,222.24,222.24,0,0,0-23.12-12.89c-.41-3.62-.88-7.23-1.46-10.82-.21-1.33-.43-2.75-.66-4.22C113.24,36.13,125.05,36,134.75,45.32ZM104.18,59.44c10,5,20.16,10.41,28.84,17.47l.62.52c-5.12,7.11-12.45,13.12-18.66,18.39q-4.53,3.84-9.27,7.4A399.82,399.82,0,0,0,104.18,59.44Zm-1.89,36c0,3.48-.1,7-.18,10.45-4.12,2.95-8.35,5.75-12.7,8.36-7.62-2.67-15-5.86-21.72-8.93a259.75,259.75,0,0,1-23.33-12q-1.09-9.75-1.56-19.57a288.6,288.6,0,0,1,27.38-18c3.67-2.13,7.7-4.56,11.95-6.94,6.32,2.8,12.5,5.84,18.53,8.85A330.47,330.47,0,0,1,102.29,95.42Zm-16.55,21c-1.83,1-3.66,2.07-5.52,3a163.19,163.19,0,0,1-29.65,12.15c-2.28-11.23-4.27-22.53-5.7-33.89,1.76,1,3.53,2,5.31,3A219.59,219.59,0,0,0,85.74,116.37Zm13.59-69c.3,2,.57,3.91.82,5.88q-4.73-2.25-9.5-4.38l-4.74-2.1A107.26,107.26,0,0,1,98.4,41C98.75,43.31,99,45.48,99.33,47.35ZM70.61,3.75c3.24-1.35,7.26-1.48,9,2.24a6.72,6.72,0,0,1-3.72,9.06c-3,1.07-7,0-8.15-3.31C66.75,8.72,68.35,5.7,70.61,3.75Zm-6.15,7.76a8,8,0,0,0,.58,2c2.19,5,8.73,6.38,13.3,4A9.87,9.87,0,0,0,83.18,11C92.58,14.17,96,26.52,97.8,37.2a133,133,0,0,0-16.4,7.59c-9.46-4-19.12-7.7-29.16-9.89-1.27-.27-2.69-.53-4.21-.76A53.59,53.59,0,0,1,64.46,11.51Zm-17.64,26a139.16,139.16,0,0,1,30.78,9.4l-1.89,1.06a354.62,354.62,0,0,0-33.08,20.5C42.49,57.84,43.57,47.2,46.82,37.46ZM16.5,72.86C9,65.63.5,52.78,10,43.61c7.67-7.36,20.5-7.94,30.46-7,.92.09,1.84.21,2.76.33a95.68,95.68,0,0,0-4.13,27.55q0,3.24,0,6.51c-4.39,3.28-8.63,6.72-12.65,10.38A123.9,123.9,0,0,1,16.5,72.86ZM40,90.69q-5.14-3.19-10-6.73,4.57-3.84,9.3-7.47C39.35,81.18,39.58,85.93,40,90.69ZM4.56,108.31c-1.93-2.61-1.51-6.44.5-9a1,1,0,0,0,.39-.1c2.93-1.44,5.91-3.12,8.77-.34a7,7,0,0,1-.54,10.22A6.19,6.19,0,0,1,4.56,108.31ZM42,133.82c-7.85,1.78-17.33,3-24.66-1.2-6.51-3.77-10.16-11.17-8.15-18.42a10.07,10.07,0,0,0,7.12-2.79,10.36,10.36,0,0,0,.26-14.83l-.34-.29q5.41-5.22,11.05-10.08c4.24,3.06,8.6,6,13.06,8.72A216.41,216.41,0,0,0,47,132.58C45.32,133,43.65,133.44,42,133.82Zm14.39,24c-4.11.65-6.13-3.29-5.52-6.89.45-2.66,2-4.51,3.83-6.23l.09,0c3.08.64,6.54.25,7.57,4.15S60.29,157.2,56.36,157.82Zm43.71-16.07c-4,16.7-21.5,21.52-35.79,14.8a10.94,10.94,0,0,0,1.61-8.16c-.84-3.79-6.63-9-10.56-6.54a8.17,8.17,0,0,0-2.48.54c-.49-2.24-1-4.48-1.43-6.73a199.74,199.74,0,0,0,20.46-8A178.12,178.12,0,0,0,90.67,118c3.6,1.15,7.27,2.28,11,3.24C101.54,128.07,101.64,135.2,100.07,141.75Zm-5.82-25.91q3.93-2.45,7.72-5.08c-.07,2.4-.14,4.81-.22,7.21C99.24,117.35,96.74,116.62,94.25,115.84Zm51.69,4.73c-1,3.08-4.71,5.61-8,5.06-3.08-.52-4.15-3.53-4-6.35a8.2,8.2,0,0,1,4.59-7.16,1.77,1.77,0,0,0,2,1.55,4.44,4.44,0,0,1,3,.61,1.65,1.65,0,0,0,.74.56A5.61,5.61,0,0,1,145.94,120.57Zm-1-9.28a8.13,8.13,0,0,0-4.83-.78.79.79,0,0,0-.53-.47c-5.44-1.46-8.84,4.31-8.85,9.88-8.19,1.33-16.76.69-25.27-1.09.08-3.56.12-7.11.16-10.66q5.4-3.93,10.52-8.22c6.75-5.66,14.77-12.21,20.37-20a39.84,39.84,0,0,1,8.27,10.78C146.9,94.91,151.41,109,145,111.29Z"/></g></g></svg>