<svg xmlns="http://www.w3.org/2000/svg" viewBox="0 0 68.7 45.92"><defs><style>.cls-1{fill:#fff;fill-rule:evenodd;}</style></defs><g id="Layer_2" data-name="Layer 2"><g id="OBJECTS"><path class="cls-1" d="M2.1,31.2c.68-.18.09.28.63-.17a.34.34,0,0,0,.09-.2,14.21,14.21,0,0,0,.31-3.69c.09-4.81-.4-9.63-.4-14.43a3.36,3.36,0,0,0,0-1.1c-.1-.28-.23-.27-.41-.51a.71.71,0,0,0-.64-.75A.71.71,0,0,0,.89,11c-.21.24-.37.28-.5.58-.73,1.71-.23,3.71-.17,5.56.12,3.75.45,7.5.67,11.24.06.84-.26,1.8.21,2.5.36.53.09,0,.67.31a.16.16,0,0,0,.15.18A.17.17,0,0,0,2.1,31.2Z"/><path class="cls-1" d="M2.41,12.7a.75.75,0,0,1,.3,0c.25.06.42.25.77.36a11.89,11.89,0,0,0,2.14.35c3.32.36,8.63.55,14.38.76,9,.33,19.06.42,24.3.52a12.61,12.61,0,0,0,1.62,0A6.24,6.24,0,0,0,47,14.4a.58.58,0,0,0,.07-1.16A7.08,7.08,0,0,0,46,12.82a14,14,0,0,0-1.62-.14c-5.23-.43-15.28-1.21-24.28-1.6-5.75-.26-11.07-.54-14.41-.33a15.69,15.69,0,0,0-4,.63,2.63,2.63,0,0,0-.9,1.7,14.38,14.38,0,0,0-.24,3.35c.13,2.07.26,4.16.28,6.25,0,1.38,0,2.76-.09,4.13a14.06,14.06,0,0,0-.09,3.8,2,2,0,0,0,2.07,1.67c8-.09,15.46.24,22.11.27,8.23,0,15.13-.17,20-.3a9.61,9.61,0,0,0,1.33,0,6.12,6.12,0,0,0,.89-.25.17.17,0,0,0,.17-.16.17.17,0,0,0-.17-.17,7,7,0,0,0-.88-.27c-.42-.07-.86-.06-1.32-.09-4.83-.32-11.7-1.09-19.93-1.38-6.67-.23-14.22,0-22.21.28-.13,0-.06-.16-.08-.28a4.51,4.51,0,0,1-.06-1c0-.74.11-1.5.12-2,0-1.42,0-2.84-.08-4.27-.12-2.11-.31-4.23-.52-6.32a11.61,11.61,0,0,1,0-1.69,9,9,0,0,1,.24-1.73A1.34,1.34,0,0,1,2.41,12.7Z"/><path class="cls-1" d="M43.22,3.1c.84.72,1.68,1.59,2.16,2l10.33,8.11L64.63,20a18.49,18.49,0,0,1,1.47,1.17,2,2,0,0,1,.62.74c-.69-.29-1.93,1.52-2.31,1.84l-7.9,6.82c-2.09,1.8-4.21,3.66-6.25,5.58-1.37,1.28-2.72,2.6-4,3.93a26.19,26.19,0,0,1-2.57,2.43l0,0,0-1c-.22-2-.32-4.25-.45-6.43-.05-.94-.15-1.84-.17-2.74,0-.31.16-.68,0-.92l-.1-.13h0a1.12,1.12,0,0,1-.58-.07c-.06,0,0-.17-.15-.19s-.13.14-.18.15a2.05,2.05,0,0,1-.6-.07H41.3l-.07.05c-.07.06,0,.17-.06.26a23.31,23.31,0,0,0-.55,2.88,50,50,0,0,0,0,7.45l.21,1.89s0,.62.06.85a1.55,1.55,0,0,0,1.39,1.39A4.45,4.45,0,0,0,44.76,45,22,22,0,0,0,48,41.69c1.54-1.66,3.17-3.29,4.83-4.89s3.39-3.15,5.09-4.67l7.81-6.88a23.7,23.7,0,0,0,2.41-1.83,2.07,2.07,0,0,0,.61-1.26,2.75,2.75,0,0,0-.61-1.7,12.64,12.64,0,0,0-2.23-2L57,11.54,46.81,3.34c-.55-.47-1.6-1.62-2.58-2.38A4.23,4.23,0,0,0,42.41,0a1.31,1.31,0,0,0-1.47,1,15.77,15.77,0,0,0-.4,3.18l.51,8.53a1.26,1.26,0,1,0,2.51-.12L42.92,4.2C42.92,4.11,43.1,3.62,43.22,3.1Z"/><path class="cls-1" d="M3.15,15.86a2.46,2.46,0,0,0-1.93,1.33,3.64,3.64,0,0,0-.15,2.95A10.25,10.25,0,0,0,2.76,23a4.86,4.86,0,0,0,1.07,1.05l2,2.23-.06,0-1.09-.79c-.19-.14-.53-.51-.72-.63a1.38,1.38,0,0,0-.9-.2A1.23,1.23,0,0,0,1.85,26a2.41,2.41,0,0,0,.23,1,1.33,1.33,0,0,0,.16,1.79c.29.24,1,.81,1.14.93.51.4,1.06.87,1.64,1.26a6.12,6.12,0,0,0,1.51.72A1.21,1.21,0,0,0,8.13,31l.06-.17c.23.15.43.28.59.37l.11,0,.08.05a2.09,2.09,0,0,0,.56.14,15.69,15.69,0,0,0,2.93.42,17.57,17.57,0,0,0,1.79,0c3.37.22,7.48.38,9.74.45h.08l.24,0c.46,0,.8.08.94.08a1.32,1.32,0,0,0,1.22-.63,1.94,1.94,0,0,0,.19-.5l.06-.06a1.21,1.21,0,0,0,0-.25,1,1,0,0,0-.25-.64c1.56.38,2.79.68,3.48.89a1.08,1.08,0,0,0,1.37-1.12l2.87.82a1.17,1.17,0,0,0,1.44-.5c1.3.39,2.37.73,3.09,1a1,1,0,0,0,1.39-.53c.38.29.77.58,1.16.83q.24.15.48.27c.1.42.55,1.06.7,1.47.28.78.65,1.56,1,2.34a3.55,3.55,0,0,0-.27,1.36,8.32,8.32,0,0,0,.14,1.48c-.11,0-.18,0-.22,0a1,1,0,0,0-.64,1.67c0,.08.33.35.44.47a7.19,7.19,0,0,0,.79.74,2.07,2.07,0,0,0,.68.34,1.42,1.42,0,0,0,.56.05,1,1,0,0,0,.74.56.93.93,0,0,0,1-.38l4.94-6.07,1.15-1.24a14.77,14.77,0,0,0,2.32-1.64c1.13-1,2.19-2,3.27-3L59.72,29c.63-.47,1.26-.94,1.87-1.41l.13-.11a1,1,0,0,0,.32-.66,1.06,1.06,0,0,0-.13-.73l.14-.08.15-.09,2-1.48A9.66,9.66,0,0,0,66.06,22a1.27,1.27,0,0,0,0-1.29,5.32,5.32,0,0,0-1.35-1.17l-5.13-3.86L59,15.38l-2.24-1.76c-2.72-2.17-5.52-4.26-8.28-6.4a66.48,66.48,0,0,1-5.34-4.44.16.16,0,0,0-.24,0,.16.16,0,0,0,0,.23c.31.37.62.73.94,1.09a1.08,1.08,0,0,0-1.4.42,1.57,1.57,0,0,0-.13.23c-.48-.3-.72-.1-.22,1.07a9.87,9.87,0,0,0,1.1,1.85l.06.14a20.38,20.38,0,0,1,.65,2.28,1.76,1.76,0,0,0-.48-.16,1.46,1.46,0,0,0-1.27.35,1.36,1.36,0,0,0-.47,1.21,1.74,1.74,0,0,0,.3.79l.07.09a.88.88,0,0,0-.16.29.91.91,0,0,0-.26.06,1.27,1.27,0,0,0-1,1.22l-.1,0-7.47-1-16.6-.38c-.23,0-.69-.27-.91-.31a1.34,1.34,0,0,0-.78.06A1.08,1.08,0,0,0,14,13.46a1.11,1.11,0,0,0-.85.16c-1.64-.26-3.31-.44-4.93-.69l-2-.39-.91-.16-.66-.15a1.4,1.4,0,0,0-1.1.44,1.75,1.75,0,0,0-.39.77.87.87,0,0,0-.31.17,1.24,1.24,0,0,0,.17,2.15Zm60,5.33.13.11.08,0h0l-.27-.19-.07,0Zm-4.56,4.33.26.28.13-.09a9.44,9.44,0,0,0,1.19-1.09L60,24.49l-.25-.17c.15.59-.38,1-.75,1.14A1.15,1.15,0,0,1,58.59,25.52ZM61,22.14h0l.06.05h.16l-.2-.1ZM56.64,27.2h0Zm-2.38,1.85.56.8.35-.27-.83-.48Zm-2.7,2.38.5.67.42-.36.3-.25-.07,0a30.14,30.14,0,0,1-2.56-2.27l-.72-.67Zm-1.71,2.08a.65.65,0,0,1,0,.17l0,.13.1.27,0,.07.14-.16.19-.19Zm-2.61.24c.14.54.26,1.06.39,1.55.06.25.22.7.34,1.18l.05-.06a2.11,2.11,0,0,0,0-1.24c-.15-.4-.32-.8-.5-1.19l-.07-.07Zm2-21.92L50.6,13l.19.15.89.65-1-.87c-.41-.37-.78-.77-1.16-1.17L49,11.3,47,9.68ZM34.09,27.55l.16.15.68.21-1.17-1.1A5.6,5.6,0,0,0,32.65,26l-.31,0ZM19.23,15.07c.23.1.47.19.72.28.81.31,1.73.51,2.68.78,2.25.34,4.61.69,6.46,1a11.32,11.32,0,0,1,4,1.29l1.11,1,.78.25c-.17-.21-.32-.43-.48-.65a19.23,19.23,0,0,1-1.91-3.37Zm8.94,10.46-1.25-.15,1.91.62-.11-.11A2.9,2.9,0,0,0,28.17,25.53ZM16.92,28a5.22,5.22,0,0,1,.34.48l1.34.2,1.63.26,1.07.17C19.87,28.74,18.38,28.37,16.92,28ZM3.61,18.62s-.06,0-.06.11h0a1.16,1.16,0,0,0,0,.71,5.88,5.88,0,0,0,.42.43l3.2,2.74c.88.75,3.43,1.59,6.52,2.46,2.26.65,4.79,1.28,7.22,1.86-2.11-.69-4.21-1.41-6.14-2.12s-3.71-1.45-5.13-2.13a10.11,10.11,0,0,1-4.1-2L5,20a6,6,0,0,1-.73-.69,3.08,3.08,0,0,1-.45-.63.35.35,0,0,0-.23,0l0,.08v0h0a.61.61,0,0,1,0-.12h0v0Zm5.33,7.8.8.85c.06-.07.2.21.23.24l-.23-.24s0,0,0,0c-.11.44,1.37.24,2.56.42h0C11.25,27.25,10.09,26.84,8.94,26.42Z"/><path class="cls-1" d="M20.31,15.57s.14.07.28.08a23.41,23.41,0,0,0,4.68,1l.87.09c2.14.32,4.31.72,6.48.91a8.22,8.22,0,0,0,3,.09c.16,0,.2-.12.34-.21a.18.18,0,0,0,.18-.16.17.17,0,0,0,0-.07l.71.06a.46.46,0,1,0,.21-.89,23.31,23.31,0,0,0-3.28-.87c-2.18-.4-4.41-.53-6.61-.74A38,38,0,0,1,21.9,14l-.47-.13c-.17-.06-.6-.18-.72-.21a.86.86,0,0,0-.53,0c-.1,0-1.23,1.38.05,1.82Z"/></g></g></svg>