<svg xmlns="http://www.w3.org/2000/svg" viewBox="0 0 174.81 280.06"><defs><style>.cls-1{fill:#2d2e83;}</style></defs><g id="Layer_2" data-name="Layer 2"><g id="Objects"><path class="cls-1" d="M168.57,198.77C158.47,178,135.65,163.64,112.63,172,100.44,146.11,87.78,120.5,76,94.43Q67.17,74.82,58.74,55C53.45,42.58,49.07,28.88,42.2,17.18a36.19,36.19,0,0,0,5.22-2.31c1.63-.92,3.51-1.78,4.74-3.21a1.38,1.38,0,0,0,.87-.23,6.22,6.22,0,0,0,1.32-9.7c-4-4-8.84.19-13.37.12A1,1,0,0,0,40,3C31.59,5.21,23.33,9.44,15.49,12.8c-4.3,1.84-11.38,3.7-14.08,8.14A3.93,3.93,0,0,0,.07,24.89a6.3,6.3,0,0,0,4.08,4.79,12.23,12.23,0,0,0,12-2.06c.9,5.41,4.45,10.94,6.6,15.75q4.53,10.13,9,20.28c6.11,13.92,12.18,27.85,18,41.88q17.16,41,33,82.53c-16.22,9.93-24,31-20.54,49.42,3.68,19.43,19.19,35.63,38.19,40.77,20.91,5.66,43.49-2.31,57.53-18.41,7.08-8.12,13.79-18.33,16-29S173.31,208.52,168.57,198.77Zm2.74,27.13C170.13,236.25,164.3,246,158,254c-11.95,15.41-30.46,24.29-50.08,21.89C90.09,273.76,74.27,261,68,244.18c-7.41-20,.75-40.93,16.61-54.07a1.59,1.59,0,0,0,1.7-2.13Q70,145.4,52.37,103.34C46.65,89.72,40.9,76.08,35,62.54Q30.3,51.8,25.51,41.13c-2.17-4.84-4-11.26-7.72-15.29a.91.91,0,0,0-1.28-1.22l0,0a.33.33,0,0,0-.54.27V25a12.49,12.49,0,0,1-8.77,2.2,4.91,4.91,0,0,1-3.72-1.93c-.77-1.21-.35-2.45-.24-3.73C5.69,19.14,10,18.09,13,16.88c3.81-1.55,7.6-3.17,11.41-4.72,6.31-2.58,13.14-4.73,19-8.22,1.7-.32,3.33-1,5.09-1.26s3.56,0,4.51,1.63S53,8,51.42,9a1.32,1.32,0,0,0-.55.61,22.36,22.36,0,0,0-4.66,2.67c-2.05,1.25-4,2.67-6,4a.76.76,0,0,0-.26,1c0,.06,0,.12,0,.18,3.26,13.66,10.32,27.07,15.9,39.92q8.8,20.3,17.91,40.46c11.71,25.82,23.6,51.75,36.83,76.84a1.33,1.33,0,0,0,1.74.54,1.4,1.4,0,0,0,.87-.06c19.83-7.19,40.08,3.44,50.33,20.79C168.66,204.59,172.48,215.72,171.31,225.9Z"/><path class="cls-1" d="M152.24,190.9a1,1,0,0,0-1.54.17,1.65,1.65,0,0,0-2.08-1.46c-27.65,7.88-56.93,20-79.32,38.47l-.18-.6c-.15-.54-.87-.31-.89.17-.72,15,11,29.69,23.4,36.91,13.54,7.89,30.91,8,45,1.31C150.9,259,162,246,164.83,230.22,167.39,215.92,163.33,200.62,152.24,190.9Zm-2.88,1.82c-4.21,15.59-17.61,25.43-32.15,30.86S86.93,232,71.67,228.67c12.53-6.92,24.35-14.86,37.38-21A269.88,269.88,0,0,1,149.36,192.72Zm-15.27,72.14c-13.37,5.31-28.84,4.9-41.37-2.46C80,254.92,74.1,243.5,69.93,230.17c16.85,5.69,36.43,1.13,52.28-5.76,13.77-6,25.61-16.12,29.41-31.07C174.19,215.19,161.69,253.88,134.09,264.86Z"/><path class="cls-1" d="M91.92,241.49a.77.77,0,0,0-.44-.22,3.61,3.61,0,1,0-.54,7.17,3.5,3.5,0,0,0,3.81-3.5C94.75,243.61,93.53,241.12,91.92,241.49Zm-.67,4.26c-2,.13-1.56-2.49.1-2.65l.08,0c.32.44.76.79.79,1.42A1.09,1.09,0,0,1,91.25,245.75Z"/><path class="cls-1" d="M106.32,246.65a.54.54,0,0,0-.36.55c.2,1.21,1.21,1.93,1.13,3.3a2.3,2.3,0,0,1-2.5,2.27c-3.41-.16-3-4.91-.13-5.62.62-.15.37-1-.2-1a4.64,4.64,0,0,0-4.73,4.36,4.87,4.87,0,0,0,4.54,4.95,4.7,4.7,0,0,0,5.23-3.78C109.61,250,108.72,246.1,106.32,246.65Z"/><path class="cls-1" d="M108.32,236.2a.7.7,0,0,0-.9,1c.4.8.55,2.54-.82,2.35-1.82-.26-.9-2.33-.07-3.16.43-.44-.19-1-.67-.76a3.71,3.71,0,0,0-2.1,3.4,3,3,0,0,0,2.76,2.44,2.84,2.84,0,0,0,3-1.94A2.54,2.54,0,0,0,108.32,236.2Z"/><path class="cls-1" d="M115.66,257.84a.73.73,0,0,0-.89.59l-.09-.07a3.39,3.39,0,1,0-2.36,6.3,3.88,3.88,0,0,0,5-2C118.07,260.89,117.73,258.43,115.66,257.84Zm-2.18,4.5c-2.13-.42-1-3.5.84-3a.47.47,0,0,0,.53-.18C115.14,260.48,115.43,262.74,113.48,262.34Z"/></g></g></svg>