<svg xmlns="http://www.w3.org/2000/svg" viewBox="0 0 110.62 189.92"><defs><style>.cls-1{fill:#b4c6d8;}.cls-2{fill:#585889;}.cls-3{fill:#7796bc;}.cls-4{fill:#340304;}.cls-5{fill:#89a4cc;}.cls-6{fill:#3d3d6d;}.cls-7{fill:#dcfff5;}</style></defs><g id="Layer_2" data-name="Layer 2"><g id="OBJECTS"><path class="cls-1" d="M79.55,93.07c-3.58.77-7.15,1.78-10.68,2.61-1.65.39-3.29.79-4.94,1.2s-3.29.81-4.93,1.23q-2.3-10.81-4.62-21.63c-1.51-7-2.65-14.23-4.8-21.08A13.27,13.27,0,0,0,54.17,53,11.65,11.65,0,0,0,56,51.31a13.76,13.76,0,0,0,.37-16.52,12.93,12.93,0,0,0-7.26-4.69,13.6,13.6,0,0,0-5-.32A18.41,18.41,0,0,0,43,26.36c1.68-.33,3.34-.7,5-1.07s3.47-.77,5.2-1.13c3.73-.78,7.5-1.37,11.23-2.08.55,5.62,2,11.24,3.06,16.76Q69.29,47.92,71.22,57q1.89,8.81,3.87,17.6c.69,3,1.36,6,2.06,9s1.18,6.48,2.37,9.44Z"/><path class="cls-2" d="M56.43,38.07a10.73,10.73,0,0,0-7-6.22,13.17,13.17,0,0,0-5.16-.49.34.34,0,0,1-.22.15c-3.57.86-6.61,2.21-8.54,5.54a11.78,11.78,0,0,0,7.68,17.11,12,12,0,0,0,6.32-.34A11.74,11.74,0,0,0,56.43,38.07ZM48.88,51.84a9.37,9.37,0,0,1-5.76.07,9.82,9.82,0,0,1-6.35-5.63c-1.67-4.26.36-10.82,5.15-12.07H42c.19-.09.37-.19.57-.27a4.4,4.4,0,0,1,2.53-.46,8.79,8.79,0,0,1,3.35.34,9.39,9.39,0,0,1,6.35,6.1A9.9,9.9,0,0,1,48.88,51.84Z"/><path class="cls-1" d="M60.56,4.47C56.35,5.2,52.16,6,48,6.86c-1.29.26-2.6.48-3.93.72a63.59,63.59,0,0,0-8.53,1.94v0a12.27,12.27,0,0,0-1-3.43A46.7,46.7,0,0,0,43.4,4.72c1.1-.25,2.19-.48,3.26-.68,4.33-.84,8.68-1.61,13-2.54A20.76,20.76,0,0,0,60.56,4.47Z"/><path class="cls-1" d="M48.46,50.41a8,8,0,0,1-5.31,0,8.27,8.27,0,0,1-4.83-4.09c-2.18-4.47.54-8.47,4-11.16.3-.13.6-.26.9-.36a9.81,9.81,0,0,1,1.13-.25,10.33,10.33,0,0,1,4.58.86,8.16,8.16,0,0,1,4.58,4.93A8.54,8.54,0,0,1,48.46,50.41Z"/><path class="cls-1" d="M66.75,20.23c-4.53.52-9,1.52-13.49,2.45q-2.8.57-5.59,1.21c-2.69.63-5.37,1.33-8,2.22a21.79,21.79,0,0,0-1.27-5,.56.56,0,0,0,.29,0c2.67-.51,5.31-1.22,8-1.92,1.61-.43,3.22-.85,4.83-1.21q6.8-1.52,13.69-2.52a.56.56,0,0,0,.21-.09,18.83,18.83,0,0,1,.94,2.23C66.54,18.45,66.44,19.45,66.75,20.23Z"/><path class="cls-2" d="M58.55,15.14c-4.1.67-8.25,1.44-12.27,2.51-1.15.31-2.29.63-3.42,1,0,0,0,0,0,0a22,22,0,0,0-1.25-4.91A37,37,0,0,0,40.31,9.8c1.36-.23,2.71-.5,4-.76s2.39-.48,3.56-.69c2.93-.53,5.87-1.06,8.81-1.63A70.9,70.9,0,0,0,58.55,15.14Z"/><path class="cls-1" d="M78.65,105.68A10.88,10.88,0,0,1,73,109.26l-.1,0a12.08,12.08,0,0,1-6.43-.52c1.39-.2,2.78-.46,4.17-.79C73.35,107.34,76.05,106.51,78.65,105.68Z"/><path class="cls-2" d="M88.44,118.85c3.4-1.24,6.92-3,10.46-3.82-.4-1.52-.8-3-1.19-4.57a22.4,22.4,0,0,1-.6-2.38c-7,4.14-14.39,7.65-21.55,11.42l-10.85,5.71a89,89,0,0,1-10,5l.09.17c7.14-3.07,14.95-4.93,22.3-7.46Q82.81,120.91,88.44,118.85Z"/><path class="cls-3" d="M84.91,121.81Q81.48,123,78,124.23c-4,1.38-8.18,2.93-12.35,4.29A2.18,2.18,0,0,1,66,129c6.38-2.26,12.94-3.91,19.29-6.28C85.16,122.43,85,122.12,84.91,121.81Z"/><path class="cls-1" d="M80.23,103.57c-3.74,1.19-7.63,2-11.43,3-1.54.41-3.07.84-4.58,1.34-.19-.52-.58-1-.8-1.5-.38-.8-.65-1.65-1-2.46l.67-.16,2.45-.58,4.55-1.1q4.65-1.11,9.29-2.26A28.19,28.19,0,0,0,80.23,103.57Z"/><path class="cls-2" d="M83.08,97.35c-4.48,1-9,2.14-13.42,3.24L65,101.75l-1.87.46a28.3,28.3,0,0,0-5.45,1.63.75.75,0,0,0-.19-.26,8.55,8.55,0,0,1-2.23-3.32c3-.64,6-1.29,9-2l5-1.16c4.52-1.06,9.19-1.91,13.64-3.26A31,31,0,0,0,83.08,97.35Z"/><path class="cls-2" d="M45.76,64.63a4.2,4.2,0,0,0-1.75.8.43.43,0,0,1-.45,0,4.28,4.28,0,0,0-1.7,4,4.4,4.4,0,0,0,.94,2.16,4.28,4.28,0,0,0,4.4,1.48C52.76,71.56,50.07,63.81,45.76,64.63Zm1.82,6.63a2.91,2.91,0,0,1-3.09-.32,2.83,2.83,0,0,1-1-1.37,2.64,2.64,0,0,1,.92-2.86.38.38,0,0,1,0-.1,1.71,1.71,0,0,1,1.95-.81A3.41,3.41,0,0,1,48.59,67,3,3,0,0,1,47.58,71.26Z"/><path class="cls-1" d="M71.61,165.59q-2.73-2.46-5.57-4.78c-1.88-1.54-4.21-3.82-6.86-3.46-2.37.33-3.73,2.57-4.89,4.42-.35.56-.7,1.12-1,1.68-1,1.61-2,3.24-3,4.86-2.37,3.86-4.63,7.87-7.31,11.51.46-.07.93-.12,1.39-.2,0,0,0,0,0-.05,2.18-3.63,4.48-7.19,6.73-10.78.17-.27.6,0,.44.25-2,3.47-3.89,7-5.91,10.41,5.79-.83,11.57-1.62,17.38-2.31,4.61-.55,9.24-1.07,13.86-1.56l4.42-.44C78.16,171.85,75,168.63,71.61,165.59Zm-11.45,5.7a4.59,4.59,0,0,1-4.93-4.82A4.16,4.16,0,0,1,59,162.71c2.1-.77,4.62,1.4,5,3.42A4.57,4.57,0,0,1,60.16,171.29Z"/><path class="cls-2" d="M63.52,178.7Q52.23,180,41,181.7c-7.26,1.07-14.62,2.74-21.95,3.24a22.38,22.38,0,0,0,.61,3.78c3.18-.69,6.53-.89,9.75-1.26l11.71-1.34,22.45-2.57c15.18-1.73,30.35-3.6,45.55-5.17a34.91,34.91,0,0,1-.55-3.69C93.5,175.76,78.49,176.93,63.52,178.7Z"/><path class="cls-2" d="M60.3,169.7a3,3,0,0,0,2-4c-.7-1.34-2-1.53-3.33-1.71a3.28,3.28,0,0,0-2.16,2.71A3,3,0,0,0,60.3,169.7Z"/><path class="cls-1" d="M47.45,70.09a1.74,1.74,0,0,1-2,.24,1.88,1.88,0,0,1-.85-.75,2,2,0,0,1,1-2.67,2.72,2.72,0,0,1,1.1,0,1.65,1.65,0,0,1,.75.41A1.93,1.93,0,0,1,47.45,70.09Z"/><path class="cls-1" d="M85.23,160.81c-3.45,2.37-7.64,2.87-11.64,3.63a.68.68,0,0,0-.47.36c-.81-.73-1.63-1.47-2.46-2.19l-1.07-1c-2.88-2.67-6.67-6.4-10.59-5.93s-6,5.17-7.85,8.15l0,.08c-.92,1.52-1.88,3-2.85,4.55-9.78.91-20.36-1.4-26.35-9.82-3-4.22-4.62-9.21-6.09-14.11-.28-.93-.56-1.87-.85-2.8-1.23-4.12-2.51-8.22-3.9-12.29-2.82-8.28-5.92-17.17-7.79-26.18C.69,90.9.46,78.28,6.6,66.73c5.67-10.65,15.89-16.16,26.22-21.42a14.41,14.41,0,0,0,1.37,3.82,12.76,12.76,0,0,0,6.44,5.93,11.83,11.83,0,0,0,2.62.72,14,14,0,0,0,5.35-.13c.37,3.05.94,6.09,1.58,9.12A5,5,0,0,0,45,63.46h0A5.56,5.56,0,0,0,40.45,70a5.82,5.82,0,0,0,11.11,1c.41,1.82.82,3.63,1.2,5.44,0,0,0,.11,0,.16-8.47,1-17.79,3.07-23.65,9.78a18.39,18.39,0,0,0-3.15,5,20.76,20.76,0,0,0-2.35,12.38,45.3,45.3,0,0,0,2.1,9.84c1.48,4.56,3.2,9,4.83,13.54s2.9,9,4.93,13.23l0,.1c.19.35.72.08.62-.28-1-4.38-2.9-8.65-4.41-12.88-1.4-3.93-2.84-7.86-4.16-11.81-1.79-5.36-3.05-10.77-2.65-16.13.39,4.13,1.82,8.31,2.89,12.17a209.08,209.08,0,0,0,10.54,29.79,11.47,11.47,0,0,0,4.35,5.47A9,9,0,0,0,46.24,148c4.67.59,9.69,0,14.3-.77,3.78-.61,8.84-1.28,11.29-4.63a6.31,6.31,0,0,1-1.3,1.84c-2.49,2.45-6,3.12-9.24,3.78-.21.05-.16.41.06.38,3.85-.4,8.18-1,10.73-4.25C74,142,74,139.21,73.19,136.55a15.86,15.86,0,0,0-1.06-3.74,35.43,35.43,0,0,0-1.77-3.66A90.86,90.86,0,0,0,80,126.22c3.24,7.55,7.28,14.88,9.26,22.91C90.39,153.82,89.3,158,85.23,160.81Z"/><path class="cls-4" d="M48.88,51.84a9.91,9.91,0,0,0,5.95-11.93,9.46,9.46,0,0,0-9.7-6.44,4.4,4.4,0,0,0-2.53.46c-.2.08-.38.17-.57.26h-.11C37.13,35.46,35.1,42,36.77,46.27A9.94,9.94,0,0,0,48.88,51.84ZM42.27,35.13c.3-.13.6-.25.9-.35a10.32,10.32,0,0,1,1.13-.26c3.86-.16,8,1.91,9.15,5.79a8.51,8.51,0,0,1-5,10.1,8.51,8.51,0,0,1-10.14-4.12C36.14,41.82,38.86,37.83,42.27,35.13Z"/><path class="cls-4" d="M44.45,66.61a.2.2,0,0,0,0,.11,2.61,2.61,0,0,0-.92,2.85,3,3,0,0,0,4.08,1.69,3,3,0,0,0,1-4.25C47.81,65.9,45.24,65.06,44.45,66.61Zm3,3.47a1.89,1.89,0,0,1-2.85-.5,1.87,1.87,0,0,1,2.9-2.27A1.93,1.93,0,0,1,47.45,70.08Z"/><path class="cls-4" d="M108.82,173.05c-8.54.42-17.07,1.09-25.59,1.9a1,1,0,0,0-.11-.2c-2.77-3.07-5.71-6-8.76-8.82,7.17-1,16.69-3.86,17-12.55.19-4.73-2.13-9.61-3.84-13.91a83.44,83.44,0,0,0-6.47-13.64c1.75-.64,3.48-1.3,5.19-2a.75.75,0,0,0,.15-1.31,9.13,9.13,0,0,0-.35-1.16l2.82-1c3.57-1.31,7.63-2.34,10.9-4.29a.57.57,0,0,0,.3-.56.77.77,0,0,0,.36-.87c-.41-1.55-.81-3.1-1.23-4.65a8.07,8.07,0,0,0-1.34-3.5.41.41,0,0,0-.51-.05.77.77,0,0,0-.51.05c-7.39,3.4-14.5,7.59-21.7,11.4l-10.39,5.52c-3.7,2-7.7,3.77-11.07,6.28a.43.43,0,0,0,0,.7,1.43,1.43,0,0,0,.77,1,.37.37,0,0,0,.39-.13.62.62,0,0,0,.19,0,76.65,76.65,0,0,0,9.56-2.45c.07.6.46,1.38,1,1.45a.48.48,0,0,0,.54-.23s0,0,0-.08c.87-.14,1.75-.3,2.63-.48a.43.43,0,0,0,0,.14c2.08,3.81,4.79,9.34.8,12.94-2.93,2.64-8.39,3-12.11,3.48s-8.59,1.13-12.42.12c-4.33-1.15-5.7-6.32-7.18-10A229.77,229.77,0,0,1,29.65,112c-2.24-7.93-5.59-16.79.21-24S44.72,79.7,53.08,78q2.19,10.28,4.39,20.54l-2.69.69a.49.49,0,0,0-.4.46.5.5,0,0,0-.25.44,6.14,6.14,0,0,0,2.36,4.54.7.7,0,0,0,.82.1h0a13.63,13.63,0,0,0,3.84-.49,11.08,11.08,0,0,0,.88,2.68c.33.77.69,2.06,1.63,2.22a.49.49,0,0,0,.48-.15c.22,0,.43,0,.65-.06,4.94,3.86,12.4,1.08,15.54-3.69a.31.31,0,0,0,0-.12l.36-.11a.68.68,0,0,0,.39-.3.72.72,0,0,0,.66-.91,37.11,37.11,0,0,0-1.25-4.26l3.06-.77a.63.63,0,0,0,.45-.34.6.6,0,0,0,.48-.67,30.35,30.35,0,0,0-.62-4.93.39.39,0,0,0-.41-.33.73.73,0,0,0-.49-.09c-.75.12-1.5.26-2.24.41A61.92,61.92,0,0,0,79,84.57q-1.06-4.5-2.09-9c-1.38-6-2.7-12-4-18.07s-2.5-11.76-3.69-17.64-2.07-12.13-3.76-18L67,21.56a.62.62,0,0,0,.46-.69.35.35,0,0,0,.28-.14c.69-.92.31-2.27,0-3.31a6.05,6.05,0,0,0-2-3.28.58.58,0,0,0-.62,0s0,0,0,0c-1.69.25-3.4.5-5.13.77a73.22,73.22,0,0,0-2.2-8.38c1.25-.24,2.51-.48,3.76-.74A.61.61,0,0,0,62,4.89a.63.63,0,0,0,0-.56A19.92,19.92,0,0,0,60.45.7.82.82,0,0,0,59.52,0C55.23.74,51,1.64,46.7,2.47S37.94,3.73,34,5.3a.43.43,0,0,0-.26.48.39.39,0,0,0-.18.24,4.44,4.44,0,0,0,.19,1.8c.16.68.33,1.37.5,2a.56.56,0,0,0,.55.47.39.39,0,0,0,.23.07A40.91,40.91,0,0,0,39.26,10a36.92,36.92,0,0,0,1,4.13,22.27,22.27,0,0,0,1.51,4.75,15.07,15.07,0,0,0-1.63.3,7.92,7.92,0,0,0-2.44.73.31.31,0,0,0-.17.29.45.45,0,0,0-.26.39,20.47,20.47,0,0,0,1.17,5.89.69.69,0,0,0,.56.43.41.41,0,0,0,.41.15c.8-.13,1.59-.29,2.39-.44A17.38,17.38,0,0,0,42.65,30a11.68,11.68,0,0,0-3.47,1.43A12.86,12.86,0,0,0,32.63,41a13.68,13.68,0,0,0,0,3l-.09,0C23,47.54,13.61,53.55,7.66,61.89,1.44,70.62-.47,81.67.09,92.2c.64,12,4.51,23.42,8.36,34.67,2,5.77,3.84,11.56,5.57,17.41,1.46,4.92,3,9.94,5.84,14.29,5.95,9.21,16.85,12.43,27.33,11.62A96.49,96.49,0,0,0,41.62,180a.64.64,0,0,0,0,.07l-1.15.16c-7.31,1.09-15,1.87-22.07,4a.38.38,0,0,0-.2.15.42.42,0,0,0-.18.19,6.86,6.86,0,0,0,.16,4.62.31.31,0,0,0,.05.1.49.49,0,0,0,.44.66c3.88.11,7.87-.61,11.72-1l10.74-1.21,22.94-2.58c15.12-1.7,30.27-3.27,45.38-5.14a.83.83,0,0,0,.68-.53.8.8,0,0,0,.5-.87,34.38,34.38,0,0,0-1-4.63A.74.74,0,0,0,108.82,173.05Zm-54-42.72-.09-.17a89,89,0,0,0,10-5l10.85-5.71c7.16-3.77,14.59-7.28,21.55-11.42a22.4,22.4,0,0,0,.6,2.38c.39,1.53.79,3.05,1.19,4.57-3.54.79-7.06,2.58-10.46,3.82q-5.64,2.06-11.32,4C69.77,125.4,62,127.26,54.82,130.33ZM66,129a2.18,2.18,0,0,0-.35-.49c4.17-1.36,8.3-2.91,12.35-4.29q3.45-1.19,6.89-2.42c.12.31.25.62.4.92C79,125.1,72.4,126.75,66,129Zm7-19.75a12,12,0,0,1-6.52-.51,72.34,72.34,0,0,0,12.17-3.08A10.73,10.73,0,0,1,73,109.26Zm-8.78-1.38c-.19-.52-.59-1-.8-1.5-.38-.8-.65-1.64-1-2.46l.67-.16c2.34-.54,4.66-1.11,7-1.67,3.1-.75,6.2-1.5,9.3-2.27a26.67,26.67,0,0,0,.82,3.75C75,105.24,69.44,106.15,64.22,107.88Zm18.72-14a31,31,0,0,0,.14,3.47c-4.48,1-9,2.14-13.41,3.25q-3.27.8-6.52,1.62a27.12,27.12,0,0,0-5.45,1.62.68.68,0,0,0-.2-.26,8.75,8.75,0,0,1-2.22-3.32c4.68-1,9.35-2,14-3.12C73.82,96.08,78.49,95.23,82.94,93.88Zm-15.47-55Q69.29,47.92,71.22,57q1.89,8.81,3.87,17.6,1,4.52,2.06,9c.72,3.11,1.19,6.49,2.37,9.45l0,0c-3.58.77-7.14,1.77-10.68,2.61-3.3.78-6.58,1.6-9.86,2.43Q56.7,87.3,54.38,76.48c-1.51-7-2.65-14.24-4.8-21.08A13.1,13.1,0,0,0,56,51.31a13.74,13.74,0,0,0,.36-16.52,13.41,13.41,0,0,0-12.24-5A20.87,20.87,0,0,0,43,26.37c3.42-.69,6.81-1.5,10.21-2.21,3.73-.77,7.49-1.37,11.23-2.08C65,27.7,66.36,33.32,67.47,38.84Zm-32-29.32v0a12.07,12.07,0,0,0-1-3.42C38.52,6,42.7,4.8,46.66,4c4.33-.83,8.68-1.6,13-2.53a21.29,21.29,0,0,0,.91,3C56.35,5.2,52.16,6,48,6.86S39.5,8.23,35.51,9.52Zm6.11,4.17A37,37,0,0,0,40.31,9.8c2.56-.43,5.11-1,7.61-1.45,2.93-.53,5.87-1.06,8.8-1.62a71.64,71.64,0,0,0,1.83,8.41,113.75,113.75,0,0,0-15.69,3.5.43.43,0,0,0,0-.05A22.18,22.18,0,0,0,41.62,13.69ZM39.67,26.11a21.79,21.79,0,0,0-1.27-5,.63.63,0,0,0,.28,0C43,20.34,47.19,19,51.47,18c4.53-1,9.09-1.84,13.68-2.52l.22-.08a16.06,16.06,0,0,1,.94,2.22c.23.8.13,1.8.44,2.58-4.53.52-9,1.52-13.5,2.45A117.85,117.85,0,0,0,39.67,26.11ZM35.51,37.05c1.93-3.33,5-4.69,8.54-5.54a.41.41,0,0,0,.23-.15c5-.49,10,1.67,12.14,6.71a11.72,11.72,0,0,1-6.91,15.75,11.74,11.74,0,0,1-14-16.77ZM21.9,158.68c-3-4.21-4.62-9.21-6.08-14.11-1.52-5.06-3.06-10.1-4.76-15.1C4.38,109.8-4,86.67,6.6,66.73c5.67-10.65,15.89-16.16,26.22-21.42a13.28,13.28,0,0,0,7.82,9.75,13.78,13.78,0,0,0,8,.59c.37,3.05.94,6.09,1.57,9.12A5,5,0,0,0,45,63.46,5.56,5.56,0,0,0,40.45,70a5.84,5.84,0,0,0,7.95,4.21A5.73,5.73,0,0,0,51.55,71c.42,1.82.83,3.63,1.21,5.44l0,.16c-8.47,1-17.79,3.08-23.65,9.78a18.12,18.12,0,0,0-3.14,5c-3.92,6.67-2.51,15.2-.25,22.21,1.46,4.56,3.2,9,4.82,13.55s2.92,9.1,5,13.32c.18.37.71.09.63-.27-1-4.37-2.92-8.66-4.42-12.89-1.4-3.93-2.84-7.84-4.16-11.8-1.79-5.36-3.05-10.77-2.65-16.12.39,4.12,1.82,8.3,2.89,12.16a210.28,210.28,0,0,0,10.53,29.79C40,145,42.16,147.49,46.24,148c4.66.59,9.69,0,14.3-.77,3.78-.61,8.83-1.28,11.29-4.63a6.52,6.52,0,0,1-1.3,1.83c-2.49,2.45-6,3.13-9.24,3.79-.21,0-.16.41.06.39,3.85-.41,8.18-1,10.73-4.26C74,142,74,139.21,73.19,136.55a22.94,22.94,0,0,0-2.83-7.4A90.86,90.86,0,0,0,80,126.22c3.24,7.55,7.28,14.88,9.26,22.91,1.16,4.69.07,8.87-4,11.68-3.45,2.37-7.64,2.88-11.64,3.64a.64.64,0,0,0-.47.35q-1.22-1.11-2.46-2.19c-3-2.6-7.25-7.43-11.66-6.88-4,.49-6,5.16-7.84,8.13-.95,1.55-1.93,3.09-2.91,4.64C38.47,169.41,27.9,167.1,21.9,158.68ZM47.19,73.07a4.32,4.32,0,0,1-5.33-3.64,4.26,4.26,0,0,1,1.7-4,.41.41,0,0,0,.44,0C49.22,61.68,53.5,71.36,47.19,73.07Zm3.08,95.24c1.34-2.18,2.66-4.37,4-6.54,1.16-1.85,2.52-4.09,4.89-4.41,2.65-.37,5,1.91,6.86,3.45s3.75,3.14,5.56,4.77c3.38,3,6.56,6.26,9.69,9.56q-9.17.9-18.28,2c-5.8.69-11.59,1.48-17.37,2.31,2-3.44,3.94-6.94,5.9-10.41a.25.25,0,0,0-.44-.25c-2.25,3.59-4.55,7.15-6.72,10.78,0,0,0,0,0,.06l-1.4.19C45.64,176.17,47.9,172.16,50.27,168.31Zm13.26,15.24-22.45,2.57-11.71,1.34c-3.22.37-6.57.57-9.75,1.26a22.38,22.38,0,0,1-.61-3.78c7.33-.5,14.69-2.17,22-3.24q11.26-1.66,22.56-3c15-1.77,30-2.94,45-4a34.91,34.91,0,0,0,.55,3.69C93.88,180,78.71,181.82,63.53,183.55Z"/><path class="cls-4" d="M60.16,171.29A4.57,4.57,0,0,0,64,166.13c-.37-2-2.89-4.19-5-3.42a4.15,4.15,0,0,0-3.78,3.76A4.58,4.58,0,0,0,60.16,171.29ZM58.92,164c1.31.18,2.63.37,3.33,1.71a3,3,0,0,1-2,4,3,3,0,0,1-3.54-3A3.28,3.28,0,0,1,58.92,164Z"/><path class="cls-5" d="M47,163.83c1.38.06,2.74.11,4.07.12-.92,1.52-1.88,3-2.85,4.55-9.78.91-20.36-1.4-26.35-9.82-3-4.22-4.62-9.21-6.09-14.11-.28-.93-.56-1.87-.85-2.8C21.69,151.76,32.48,163.15,47,163.83Z"/><path class="cls-3" d="M85.23,160.81c-3.45,2.37-7.64,2.87-11.64,3.63a.68.68,0,0,0-.47.36c-.81-.73-1.63-1.47-2.46-2.19l-1.07-1c11.25-3.81,15.64-12.67,8.83-28.89l-6.29.05a35.43,35.43,0,0,0-1.77-3.66A90.86,90.86,0,0,0,80,126.22c3.24,7.55,7.28,14.88,9.26,22.91C90.39,153.82,89.3,158,85.23,160.81Z"/><path class="cls-3" d="M62.42,162.54c-2.83-2.21-7.14-.24-9.16.91-1,1.61-2,3.24-3,4.86-2.37,3.86-4.63,7.87-7.31,11.51.46-.07.93-.12,1.39-.2,0,0,0,0,0-.05,2.18-3.63,4.48-7.19,6.73-10.78.17-.27.6,0,.44.25-2,3.47-3.89,7-5.91,10.41,5.79-.83,11.57-1.62,17.38-2.31,4.61-.55,9.24-1.07,13.86-1.56C72.67,171.61,65.11,164.64,62.42,162.54Zm-2.26,8.75a4.59,4.59,0,0,1-4.93-4.82A4.16,4.16,0,0,1,59,162.71c2.1-.77,4.62,1.4,5,3.42A4.57,4.57,0,0,1,60.16,171.29Z"/><path class="cls-5" d="M42.73,146.85a10.07,10.07,0,0,1-7.18-6.33c.19.35.72.08.62-.28-1-4.38-2.9-8.65-4.41-12.88-1.4-3.93-2.84-7.86-4.16-11.81-1.79-5.36-3.05-10.77-2.65-16.13.39,4.13,1.82,8.31,2.89,12.17a209.08,209.08,0,0,0,10.54,29.79A11.47,11.47,0,0,0,42.73,146.85Z"/><path class="cls-3" d="M23.65,103.81l-.12-.37s-2.62-12.11,7.66-22.62A75.09,75.09,0,0,1,41.25,72,5.79,5.79,0,0,0,51.56,71c.41,1.82.82,3.63,1.2,5.44,0,0,0,.11,0,.16-8.47,1-17.79,3.07-23.65,9.78a18.39,18.39,0,0,0-3.15,5A20.76,20.76,0,0,0,23.65,103.81Z"/><path class="cls-3" d="M43.15,50.38c8.33-5,6.79-12.13,5.73-15a8.16,8.16,0,0,1,4.58,4.93,8.54,8.54,0,0,1-5,10.1A8,8,0,0,1,43.15,50.38Z"/><path class="cls-6" d="M49.51,53.82a12,12,0,0,1-6.32.34l-.07-2.25a9.37,9.37,0,0,0,5.76-.07,9.9,9.9,0,0,0,5.95-11.93,9.39,9.39,0,0,0-6.35-6.1l1-2a10.73,10.73,0,0,1,7,6.22A11.74,11.74,0,0,1,49.51,53.82Z"/><path class="cls-3" d="M46.75,66.91a1.65,1.65,0,0,1,.75.41,1.93,1.93,0,0,1,0,2.77,1.74,1.74,0,0,1-2,.24A3.28,3.28,0,0,0,46.75,66.91Z"/><path class="cls-6" d="M47.2,73.08a4.28,4.28,0,0,1-4.4-1.48,10.29,10.29,0,0,0,1.69-.66,2.91,2.91,0,0,0,3.09.32,3,3,0,0,0,1-4.24A3.41,3.41,0,0,0,46.4,65.8a7.32,7.32,0,0,0-.64-1.17C50.07,63.81,52.76,71.56,47.2,73.08Z"/><path class="cls-3" d="M35.51,9.52v0a12.27,12.27,0,0,0-1-3.43A46.7,46.7,0,0,0,43.4,4.72L44,7.58A63.59,63.59,0,0,0,35.51,9.52Z"/><path class="cls-6" d="M40.31,9.8c1.36-.23,2.71-.5,4-.76l1.92,8.61c-1.15.31-2.29.63-3.42,1,0,0,0,0,0,0a22,22,0,0,0-1.25-4.91A37,37,0,0,0,40.31,9.8Z"/><path class="cls-3" d="M47.67,23.89c-2.69.63-5.37,1.33-8,2.22a21.79,21.79,0,0,0-1.27-5,.56.56,0,0,0,.29,0c2.67-.51,5.31-1.22,8-1.92Z"/><path class="cls-3" d="M48,25.29l1.08,4.81a13.6,13.6,0,0,0-5-.32A18.41,18.41,0,0,0,43,26.36C44.65,26,46.31,25.66,48,25.29Z"/><path class="cls-3" d="M59,98.11q-2.3-10.81-4.62-21.63c-1.51-7-2.65-14.23-4.8-21.08A13.27,13.27,0,0,0,54.17,53l9.76,43.84C62.29,97.29,60.64,97.69,59,98.11Z"/><path class="cls-6" d="M63.15,102.21a28.3,28.3,0,0,0-5.45,1.63.75.75,0,0,0-.19-.26,8.55,8.55,0,0,1-2.23-3.32c3-.64,6-1.29,9-2l.77,3.45Z"/><path class="cls-3" d="M68.8,106.54c-1.54.41-3.07.84-4.58,1.34-.19-.52-.58-1-.8-1.5-.38-.8-.65-1.65-1-2.46l.67-.16,2.45-.58A24,24,0,0,0,68.8,106.54Z"/><path class="cls-3" d="M72.91,109.28a12.08,12.08,0,0,1-6.43-.52c1.39-.2,2.78-.46,4.17-.79A17.79,17.79,0,0,0,72.91,109.28Z"/><path class="cls-7" d="M3.27,103.3C.69,90.9.46,78.28,6.6,66.73c5.67-10.65,15.89-16.16,26.22-21.42a14.41,14.41,0,0,0,1.37,3.82C2.42,61.66,2.26,92.44,3.27,103.3Z"/><path class="cls-7" d="M58.76,26.28l11.89,59s1.82,4.42,4.87,5.64L62.72,30.4S61.2,27.12,58.76,26.28Z"/><path class="cls-7" d="M42.16,37.06A5.91,5.91,0,0,0,40.38,39a5.68,5.68,0,0,0-.81,2.91,3.86,3.86,0,0,0,1.16,2.75,2,2,0,0,0,1.21.58c.89,0,1.58-.76,2-1.54,1-1.8,1.39-4.14.27-5.86A1.84,1.84,0,0,0,43,36.91C42.16,36.81,42.85,36.61,42.16,37.06Z"/></g></g></svg>