<svg xmlns="http://www.w3.org/2000/svg" viewBox="0 0 101.84 70.81"><defs><style>.cls-1{fill:#6964a3;}.cls-2{fill:#c9f2e7;}.cls-3{fill:#340304;}.cls-4{fill:#fff;}.cls-5{fill:#96c1e2;}</style></defs><g id="Layer_2" data-name="Layer 2"><g id="OBJECTS"><path class="cls-1" d="M68.86,3.88a9.1,9.1,0,0,0-3.8-2.34c-2.38-.63-4.39.14-6.5,1.08a1.18,1.18,0,0,0-.07,1.49C61.94,4,65.41,3.91,68.86,3.88Z"/><path class="cls-1" d="M29.6,11.11c7.39-1,14.83-1.73,22.26-2.29C59,8.29,66.51,7.37,73.66,8a.45.45,0,0,1,.7-.1c1,1,1.7,2.27,3.12,2.89a6.12,6.12,0,0,0,4.94-.25c.54-4.08-4-5-7.25-5s-6.41.07-9.62.11l-19.08.21L27.38,6c-6,.07-12.18.5-18.17.06C16,7.51,22.68,9.23,29.34,11.2A1,1,0,0,1,29.6,11.11Z"/><path class="cls-1" d="M73.16,9.06c-1.47.19-3,.33-4.45.44,6.07,7.18,10.34,16.14,13.47,24.94A142.57,142.57,0,0,1,99.36,47.23c-4-6.11-7.77-12.32-11.93-18.32C82.84,22.29,77.86,16,73.23,9.38A.41.41,0,0,1,73.16,9.06Z"/><path class="cls-2" d="M98.44,53.61a27.62,27.62,0,0,1-15,13.87c0-.14-.08-.28-.12-.41a.37.37,0,0,0-.08-.14.13.13,0,0,0,0-.06c-.6-1.5-1.16-3-1.71-4.55-2.21-6.08-4.12-12.25-5.9-18.47a.27.27,0,0,0-.51.16c1.62,6.32,3.61,12.5,5.83,18.62q.8,2.2,1.63,4.4a.27.27,0,0,0,0,.16c0,.18,0,.38.07.59A26.27,26.27,0,0,1,70.2,69,26.81,26.81,0,0,1,63,66.83a26.27,26.27,0,0,1-9.12-6.78C49.51,55,47.85,49,47,42.49a.51.51,0,0,0-.88-.32.75.75,0,0,0-.89-.45c-6.86,1.71-14.37,3.48-21.56,3.15C20,35.58,16.22,26.34,12.58,17c-.11-.3-.57-.17-.46.13A269.25,269.25,0,0,0,22.88,44.83,26,26,0,0,1,8.74,39.88,17.56,17.56,0,0,1,1.42,24.82a29.92,29.92,0,0,1,2.17-9.5C4.23,13.64,5,12,5.79,10.38c5.35,1.88,10.7,3.71,16.06,5.57,1.79,4.91,3.63,9.9,5.87,14.6.15.32.66.09.55-.24-1.57-4.77-3.61-9.47-5.63-14.09,10.41,3.6,20.79,7.28,31,11.33,2.85,11.58,6.2,23.5,11.14,34.39.13.31.64.07.54-.24-1.89-5.74-4.14-11.35-6-17.11q-2.68-8.34-5-16.78c.89.35,1.79.69,2.68,1.05C69.92,34.1,82.64,40.25,93.4,49.12Q96,51.25,98.44,53.61Z"/><path class="cls-1" d="M7.25,6.91c-.31.9-.69,1.78-1.08,2.65C23.6,14.68,40.82,20.93,57.68,27.69c14.95,6,29.63,13.32,41.37,24.55.24-.59.47-1.19.68-1.8a.74.74,0,0,1,.4-.46C87.84,38.85,73.55,30.2,58.42,23.5,41.9,16.18,24.61,11.68,7.25,6.91Z"/><path class="cls-3" d="M101.75,48.48a221.88,221.88,0,0,0-13.3-20.74c-3.66-5.26-7.4-10.54-11.5-15.5a7,7,0,0,0,5.77-.61.58.58,0,0,0,.89-.23C85.78,6.75,80,4.16,76.37,4c-1.93-.08-3.87-.12-5.81-.12C68.4-.53,61-1.31,57.8,2.21a1.53,1.53,0,0,0-.7,1.09,2.19,2.19,0,0,0,.06.84l-3.38.07-22.51.25c-7.74.08-15.81-.41-23.49.53a.49.49,0,0,0-.42.7l-.16,0a.61.61,0,0,0-.68.84c-7.28,9.92-10.15,25.31.39,33.94,11.13,9.12,26,6,38.77,2.78A.74.74,0,0,0,46,43.1C45,56.9,57.58,69,70.59,70.59a28.63,28.63,0,0,0,30.65-19.76.7.7,0,0,0,0-.52.76.76,0,0,0,.4-1A.63.63,0,0,0,101.75,48.48ZM87.43,28.91c4.16,6,7.94,12.21,11.93,18.32A142.57,142.57,0,0,0,82.18,34.44c-3.13-8.8-7.4-17.76-13.47-24.94,1.49-.11,3-.25,4.45-.44a.41.41,0,0,0,.07.32C77.86,16,82.84,22.29,87.43,28.91Zm-7.3,4.21a173.85,173.85,0,0,0-20.95-11A247.2,247.2,0,0,0,32.7,12.23c6.38-.75,12.77-1.43,19.19-1.91,5.24-.4,10.6-.4,15.89-.75C72.5,17.22,76.94,24.73,80.13,33.12ZM58.56,2.62c2.11-.94,4.12-1.71,6.5-1.08a9.1,9.1,0,0,1,3.8,2.34c-3.45,0-6.92.15-10.37.23a1.18,1.18,0,0,1,.07-1.49ZM27.38,6l19.09-.21,19.08-.21c3.21,0,6.42-.13,9.62-.11s7.79,1,7.25,5a6.12,6.12,0,0,1-4.94.25c-1.42-.62-2.1-1.84-3.12-2.89a.45.45,0,0,0-.7.1c-7.15-.63-14.68.29-21.8.82C44.43,9.38,37,10.1,29.6,11.11a1,1,0,0,0-.26.09C22.68,9.23,16,7.51,9.21,6.09,15.2,6.53,21.39,6.1,27.38,6ZM83.46,67.48c0-.14-.08-.28-.11-.41a.47.47,0,0,0-.08-.14s0,0,0-.06c-3-7.52-5.39-15.25-7.61-23a.26.26,0,0,0-.5.15A211,211,0,0,0,82.6,67a.29.29,0,0,0,0,.16c0,.18,0,.38.07.58A26,26,0,0,1,70.2,68.94a26.59,26.59,0,0,1-16.31-8.89C49.51,55,47.85,49,47,42.49a.51.51,0,0,0-.88-.32.75.75,0,0,0-.89-.45c-6.85,1.71-14.37,3.48-21.56,3.15C20,35.58,16.22,26.34,12.59,17c-.12-.29-.58-.17-.48.14A269.22,269.22,0,0,0,22.89,44.83,25.94,25.94,0,0,1,8.74,39.88,17.59,17.59,0,0,1,1.42,24.83a29.92,29.92,0,0,1,2.17-9.51C4.23,13.64,5,12,5.8,10.38,11.14,12.26,16.49,14.1,21.85,16c1.79,4.91,3.62,9.89,5.87,14.6.15.32.67.08.56-.24-1.58-4.78-3.61-9.47-5.64-14.09,10.41,3.61,20.79,7.28,31,11.32,2.84,11.59,6.19,23.51,11.12,34.4.14.31.65.08.54-.24-1.88-5.74-4.13-11.35-6-17.11-1.79-5.55-3.46-11.16-5-16.78.89.35,1.79.69,2.68,1.05,15,6.08,29.7,13.39,41.42,24.75A27.64,27.64,0,0,1,83.46,67.48Zm16.27-17c-.21.61-.44,1.21-.68,1.8C87.31,41,72.63,33.68,57.68,27.69,40.82,20.93,23.6,14.68,6.17,9.56c.39-.87.77-1.75,1.08-2.65C24.61,11.68,41.9,16.18,58.42,23.5,73.55,30.2,87.84,38.85,100.13,50A.74.74,0,0,0,99.73,50.44Z"/><path class="cls-4" d="M4.17,19.6c-.24.08-.31.37-.36.62-.53,2.9-1.06,5.9-.48,8.8a12.83,12.83,0,0,0,3.86,6.77A14.09,14.09,0,0,0,11.7,38.6a33.89,33.89,0,0,1-3.21-8.5,16.41,16.41,0,0,1,.49-9L4.65,19.65A.67.67,0,0,0,4.17,19.6Z"/><path class="cls-4" d="M10.41,15a.31.31,0,0,0,0-.19c0-.1-.15-.15-.25-.18a42.38,42.38,0,0,0-4.1-1.16,10.9,10.9,0,0,0-1.69,4.42c1.62.63,3.25,1.22,4.91,1.76C9.66,18.05,10,16.5,10.41,15Z"/><path class="cls-5" d="M82.58,67.19c0,.18,0,.38.07.59A26.27,26.27,0,0,1,70.2,69,26.81,26.81,0,0,1,63,66.83a40.52,40.52,0,0,0,18-4.2q.8,2.2,1.63,4.4A.27.27,0,0,0,82.58,67.19Z"/><path class="cls-5" d="M98.44,53.61a27.62,27.62,0,0,1-15,13.87c0-.14-.08-.28-.12-.41a.37.37,0,0,0-.08-.14.13.13,0,0,0,0-.06c-.6-1.5-1.16-3-1.71-4.55A27,27,0,0,0,93.4,49.12Q96,51.25,98.44,53.61Z"/></g></g></svg>