<svg xmlns="http://www.w3.org/2000/svg" viewBox="0 0 71.7 64.1"><defs><style>.cls-1{fill:#5fa0ff;}.cls-2{fill:#340304;}.cls-3{fill:#97d3ff;}</style></defs><g id="Layer_2" data-name="Layer 2"><g id="OBJECTS"><path class="cls-1" d="M23.65,48.44l-.11.07a1.72,1.72,0,0,1-.54.18.51.51,0,0,1-.3,0,2.29,2.29,0,0,0-1.59,2,1.92,1.92,0,0,0,1.95,1.81C25.57,52.69,25.52,49.32,23.65,48.44Z"/><path class="cls-1" d="M34,4.7a1.92,1.92,0,0,0-1.67-.3,1.59,1.59,0,0,0-.51,2.52A1.63,1.63,0,0,0,34.1,7,1.59,1.59,0,0,0,34,4.7Z"/><path class="cls-1" d="M66.92,50.69A3.08,3.08,0,0,0,68,46c-1.07-1.14-2.44-1.09-3.85-.9a3.89,3.89,0,0,0-.5.41c.53.34,1.06.66,1.58,1,.8.52.08,1.82-.73,1.29l-1.69-1.08a2.89,2.89,0,0,0-.16,2A3.21,3.21,0,0,0,66.92,50.69Z"/><path class="cls-1" d="M2,12.78a2.37,2.37,0,0,0-.41,2.48,2.31,2.31,0,0,0,3,1,2,2,0,0,0,.71-.68c-.15-.12-.31-.22-.46-.33-.43-.32.1-.91.52-.7l.29.14a2,2,0,0,0-.37-1.6A2.69,2.69,0,0,0,2,12.78Z"/><path class="cls-1" d="M67.06,1.13a.41.41,0,0,1-.28-.07s0,0,0,0c-.7,1-1.61,1.79-1.3,3.17A2.5,2.5,0,0,0,68.4,6.06,2.53,2.53,0,0,0,70.14,3,2.85,2.85,0,0,0,67.06,1.13Z"/><path class="cls-1" d="M44.42,26.1q-1.85,1.61-3.7,3.2c-.35.3-.88-.18-.53-.51,1.18-1.13,2.37-2.24,3.56-3.36-2.21-1.95-5.33-2.14-8.22-1.54-2.69,2.1-4.35,5.17-3.15,8.72a7.29,7.29,0,0,0,10,4.19,6.72,6.72,0,0,0,2.53-10A6.94,6.94,0,0,0,44.42,26.1Z"/><path class="cls-1" d="M37,57.9a2.54,2.54,0,0,0-3,2.25,2.45,2.45,0,0,0,3.17,2.22,2.68,2.68,0,0,0,1.54-3.22,2.9,2.9,0,0,0-1.25-1.49A.46.46,0,0,1,37,57.9Z"/><path class="cls-2" d="M66.9.12a.46.46,0,0,0-.33.33.4.4,0,0,0-.22,0c-2,.21-2.79,2.84-2.28,4.5a3.68,3.68,0,0,0,.67,1.23.6.6,0,0,0-.15.09c-6.62,6-13.2,12-19.71,18.14A9.63,9.63,0,0,0,37.47,22c-1.07-4.51-2.23-9-3.46-13.44a2.34,2.34,0,0,0,.62-.29,3,3,0,0,0,.74-4.25c-.89-1.17-3.11-1.68-4-.3a.34.34,0,0,0-.05.19,2.52,2.52,0,0,0-.81,3.22,2.85,2.85,0,0,0,2.63,1.57c.92,4.54,1.9,9.06,3,13.57a8.78,8.78,0,0,0-2.33,1,.49.49,0,0,0-.25.45,8.35,8.35,0,0,0-2.83,4.71c-4.07-2.31-8.31-4.36-12.4-6.62C14.49,19.72,10.82,17.44,7,15.44a3.5,3.5,0,0,0-.48-3.16A3.58,3.58,0,0,0,3.22,11h0l-.14,0A3.56,3.56,0,0,0,.2,15.59a3.76,3.76,0,0,0,5.06,2,3.51,3.51,0,0,0,1.26-1.16c3.38,2.35,7,4.38,10.6,6.4a147.32,147.32,0,0,0,13.34,7A8.51,8.51,0,0,0,33,36.44c-1.61,1.88-3.24,3.73-4.78,5.67a35.14,35.14,0,0,0-4.11,5.4l-.13,0h0a.49.49,0,0,0-.39-.23,3.52,3.52,0,0,0-3.84,3.09,3.32,3.32,0,0,0,3,3.65,3.26,3.26,0,0,0,3.79-2.67,3.48,3.48,0,0,0-1.26-3.24,42.49,42.49,0,0,0,4.34-5.3c1.45-1.84,2.8-3.75,4.19-5.64a9.17,9.17,0,0,0,3.47,1.71c-.3,2.82-.47,5.66-.62,8.5s-.68,6-.28,8.86a4.41,4.41,0,0,0-1.13.13.41.41,0,0,0-.27.52,3.76,3.76,0,0,0-2.45,3,4,4,0,0,0,4.47,4.22,4.16,4.16,0,0,0,3.31-4.85,3.76,3.76,0,0,0-2.82-2.87c.68-2.71.44-5.78.56-8.55.12-2.93.24-5.85.21-8.77a8.74,8.74,0,0,0,4.87-.75,8.46,8.46,0,0,0,2.42-1.74q8.24,4.39,16.12,9.36a4.14,4.14,0,0,0-.39,3A4.57,4.57,0,1,0,69.81,46a4.76,4.76,0,0,0-4.12-2.48.07.07,0,0,0-.06,0,4.81,4.81,0,0,0-3.12,1.27,154.61,154.61,0,0,0-16.33-9,8.37,8.37,0,0,0,.46-9.16,8.47,8.47,0,0,0-1-1.45C52.35,19.21,59,13.25,65.66,7.25A1,1,0,0,0,65.82,7,4,4,0,0,0,69,7.44a4,4,0,0,0,2.61-4.73A3.8,3.8,0,0,0,66.9.12Zm-35,6.8a1.59,1.59,0,0,1,.51-2.52A1.92,1.92,0,0,1,34,4.7,1.59,1.59,0,0,1,34.1,7,1.63,1.63,0,0,1,31.86,6.92ZM5.67,14.74l-.29-.14c-.42-.21-1,.38-.52.7.15.11.31.21.46.33a2,2,0,0,1-.71.68,2.31,2.31,0,0,1-3-1A2.37,2.37,0,0,1,2,12.78a2.69,2.69,0,0,1,3.27.36A2,2,0,0,1,5.67,14.74Zm17.39,37.8a1.92,1.92,0,0,1-1.95-1.81,2.29,2.29,0,0,1,1.59-2,.51.51,0,0,0,.3,0,1.72,1.72,0,0,0,.54-.18l.11-.07C25.52,49.32,25.57,52.69,23.06,52.54Zm39.77-5.86,1.69,1.08c.81.53,1.53-.77.73-1.29-.52-.35-1-.67-1.58-1a3.89,3.89,0,0,1,.5-.41c1.41-.19,2.78-.24,3.85.9a3.08,3.08,0,0,1-1.1,4.74,3.21,3.21,0,0,1-4.25-2.06A2.89,2.89,0,0,1,62.83,46.68Zm-25.41,11a2.9,2.9,0,0,1,1.25,1.49,2.68,2.68,0,0,1-1.54,3.22A2.45,2.45,0,0,1,34,60.15a2.54,2.54,0,0,1,3-2.25A.46.46,0,0,0,37.42,57.66Zm5-20.86a7.29,7.29,0,0,1-10-4.19c-1.2-3.55.46-6.62,3.15-8.72,2.89-.6,6-.41,8.22,1.54-1.19,1.12-2.38,2.23-3.56,3.36-.35.33.18.81.53.51q1.86-1.59,3.7-3.2a6.94,6.94,0,0,1,.51.67A6.72,6.72,0,0,1,42.4,36.8Zm26-30.74a2.5,2.5,0,0,1-2.94-1.79c-.31-1.38.6-2.17,1.3-3.17,0,0,0,0,0,0a.41.41,0,0,0,.28.07A2.85,2.85,0,0,1,70.14,3,2.53,2.53,0,0,1,68.4,6.06Z"/><path class="cls-3" d="M36.76,26.34c-3.86,0-4.3,6.29-.58,6.29S40.49,26.34,36.76,26.34Z"/></g></g></svg>